PathFileType	4	(X/Y/Z)	Patient4_TMGait_0pt2_03_left_19.trc.trc
DataRate	CameraRate	NumFrames	NumMarkers	Units	OrigDataRate	OrigDataStartFrame	OrigNumFrames
45.602605863192	45.602605863192	5	33	mm	45.602605863192	18	       141
Frame#	Time	Sacral			L.Shoulder			Chest			R.Shoulder			Neck			R.ASIS			L.ASIS			R.Thigh.Superior			R.Thigh.Lateral			R.Thigh.Inferior			R.Patella			L.Thigh.Superior			L.Thigh.Lateral			L.Thigh.Inferior			L.Patella			L.Shank.Superior			L.Shank.Lateral			L.Shank.Inferior			R.Shank.Superior			R.Shank.Lateral			R.Shank.Inferior			R.Heel			R.Midfoot.Superior			R.Midfoot.Lateral			R.Toe			L.Heel			L.Midfoot.Lateral			L.Midfoot.Superior			L.Toe			L.Elbow			L.Wrist			R.Elbow			R.Wrist			
		X1	Y1	Z1	X2	Y2	Z2	X3	Y3	Z3	X4	Y4	Z4	X5	Y5	Z5	X6	Y6	Z6	X7	Y7	Z7	X8	Y8	Z8	X9	Y9	Z9	X10	Y10	Z10	X11	Y11	Z11	X12	Y12	Z12	X13	Y13	Z13	X14	Y14	Z14	X15	Y15	Z15	X16	Y16	Z16	X17	Y17	Z17	X18	Y18	Z18	X19	Y19	Z19	X20	Y20	Z20	X21	Y21	Z21	X22	Y22	Z22	X23	Y23	Z23	X24	Y24	Z24	X25	Y25	Z25	X26	Y26	Z26	X27	Y27	Z27	X28	Y28	Z28	X29	Y29	Z29	X30	Y30	Z30	X31	Y31	Z31	X32	Y32	Z32	X33	Y33	Z33	

18	40.032785714286	789.584880140416	1007.992466530519	629.624148941213	914.012976079989	1431.028125258150	407.654990396633	1060.362000931806	1358.099099542189	527.686002485451	1040.685436871245	1437.208235980820	716.202138934580	941.660292338903	1490.986274463508	564.014860558393	1036.683926006783	932.633799770787	679.258346823495	953.254906490320	965.660160225523	419.159798600639	1049.759857486007	726.770278090728	637.137794732630	972.746451648308	618.034142645859	706.889031708544	1028.407719613930	565.847545188121	611.586290086011	1021.581207906630	474.060943101388	616.036258024527	1028.436724060875	774.511338254616	426.809380811363	956.291025882099	640.697662414067	350.110666859701	1070.438244778466	585.249857475197	396.578588641028	1092.596601731524	518.056843397127	384.718545212711	1065.908138596057	446.650145701819	370.590480617301	978.358224703778	331.155341041816	315.087988776256	1056.249367619249	216.566604024885	352.024355418141	976.547073952237	390.178389604189	624.016601524045	896.255450084212	294.559561961255	689.910423750256	913.705960308082	199.354575115671	617.720296206103	754.949926990423	45.923549176208	590.136804320374	928.768395530617	95.808665418982	622.271600092514	839.731984151830	37.329107676276	662.300665927896	1047.935653542888	40.361449518840	647.141973198740	952.184006544082	44.910377514713	383.646825644506	1019.878631720618	47.940127292138	298.113343433874	1100.831453024129	116.632018874938	317.342862541664	1228.068414370699	76.164606803530	277.387931982020	733.870196112156	1122.941477859631	355.184668033451	680.387924240022	872.884818107718	416.883846176392	1231.036997161421	1154.304908436590	817.913775827706	1474.523353561242	1180.186891480864	737.720002155971	
19	40.054714285714	789.094945101404	1008.271655089757	628.269119927138	911.289428882364	1430.995178025436	405.339367309631	1058.959105437070	1357.994424726720	523.741405265715	1041.431576859712	1437.233313468288	712.334083232830	940.697715626175	1491.035256217574	561.289370776868	1036.384489062209	932.717685524787	676.268154660868	951.163225256487	965.295273436525	416.582139545244	1046.947910630640	726.287037159559	635.015269689719	969.177928138487	618.433395133774	705.778482812893	1023.570468449204	565.427839713832	610.503486350453	1015.746771857909	474.064658400832	615.332294971590	1024.510182434153	772.477996715251	423.731736277682	950.299734878198	638.853574532615	348.795278079171	1064.574493839482	583.004393895111	394.300117309967	1086.636966996452	517.316085681612	383.547495539563	1062.478754086194	446.339012774253	369.613144895579	979.252372751089	327.632441610069	313.711458176911	1061.010740112208	215.673374072707	351.214955342328	971.186146278870	390.349520137322	623.636205411959	891.121741519250	294.621857189302	689.702661374849	908.898956387180	199.385772156044	617.631242277209	750.417522564082	45.645845975675	590.187048847840	924.221025987580	95.653122550614	622.115006196874	835.223779877683	37.200049836640	662.372205756445	1043.447567965587	40.463133122057	647.127264450537	961.853463794149	41.625902783707	381.955748952579	1030.864084084437	45.275320635881	297.522315332400	1109.963565626503	115.924564509417	317.564447865953	1238.731181967860	77.779702374927	280.245396250557	729.700838386039	1123.398919501363	356.906629275008	675.256077606491	874.034478280884	420.829143193996	1238.725604071859	1159.499175913637	809.820598896548	1478.196902825765	1201.280482578960	725.116226020880	
20	40.076642857143	788.684354228692	1008.009888555908	626.453936051765	908.857518485646	1430.454189157130	402.464438806045	1057.607593037468	1357.502410413915	519.565284832569	1041.793285904347	1436.836111874873	708.182151255620	939.718130970548	1490.670549583105	558.039908115190	1036.231085644024	932.565705010307	673.211264063027	949.471380339711	964.355632952850	413.851264542575	1044.658030297566	725.635651334048	632.721647565594	966.255507975796	618.545806616187	704.402891449409	1019.462357780046	564.813179387030	609.173507933368	1010.688721981216	473.759119470587	614.362977745486	1021.386376504008	770.135916838764	420.572780523776	945.121783826566	636.570148013184	347.610280382453	1059.696755091940	580.577408533834	392.044920807225	1081.431009319493	516.021769208310	382.445595968684	1059.299885023748	445.399987150031	368.724985501982	979.385374745170	324.399692166087	312.853165568991	1063.951712640550	214.623924606465	350.884489655290	966.459304396513	390.232402627541	623.025018714195	886.426526681012	294.563326889805	689.314878865461	904.311822361925	199.245626640686	617.414339094925	745.891124288012	45.347863390532	590.219161827872	919.654371405120	95.496349673957	621.916810175178	830.712760244024	37.068486167190	662.433861863410	1038.957752993615	40.569307341485	647.112205845308	968.239564509458	39.520612028897	381.010500952022	1038.460745790203	43.271263891636	297.621707456554	1116.313579639576	114.918965381776	318.476823523230	1246.029570357447	77.906340843305	283.632745240215	726.444979941783	1122.971094032815	357.640129830044	671.210078765980	874.203289944267	423.433290494851	1244.963589405261	1163.622745196881	801.565357868445	1479.941100042173	1219.623322573542	713.140999530804	
21	40.098571428571	788.383706718859	1007.326464019389	624.207949536759	906.715034781132	1429.524531943888	399.035619795999	1056.332837959180	1356.738260420161	515.148726079088	1041.811823129483	1436.144703826584	703.745869276256	938.724542520607	1489.993684866095	554.267301204441	1036.253603632646	932.252017251108	670.075248378102	948.181902709653	962.979542029346	410.967029246594	1042.896089652171	724.862147921528	630.251871235455	963.947082600675	618.430526075521	702.756467862162	1016.054427901492	564.042891797385	607.593121177180	1006.370795604985	473.193919653991	613.129885221610	1019.103928673695	767.631325369713	417.374004873055	940.830660610966	634.013813427481	346.518015061335	1055.828562257997	578.117027185610	389.840808790455	1077.007437607554	514.314893972322	381.391450632321	1056.439887577051	443.928757560141	367.872724029150	978.827304274495	321.423217678865	312.384818511556	1065.235953464656	213.326307298942	350.907400324792	962.326274228769	389.883901335839	622.186415329542	882.143660408565	294.434965940285	688.748109605309	899.926349096302	198.975257695144	617.072899859052	741.378155507013	45.061072262162	590.234515610931	915.076292171981	95.346456152706	621.684652694686	826.206973562477	36.947690000898	662.483776577320	1034.471012635858	40.670005710553	647.099121157652	971.522393037314	38.299785889810	380.647679206405	1042.853704787646	41.696824314403	298.224414740363	1120.074169719447	113.490706014200	319.908943537199	1250.262822518818	76.508179839230	287.320468300949	724.076302229764	1121.818977885896	357.277216498126	668.277543859727	873.530331955981	424.576798244625	1249.833555714262	1166.766293583914	793.284810840163	1480.117153556615	1235.178776121849	701.802759279875	
22	40.120500000000	788.212018565475	1006.364220545536	621.568235888164	904.862289120833	1428.336795368359	395.076121601553	1055.165995047574	1355.819855099331	510.486743472161	1041.555361848387	1435.298100732024	699.025876232722	937.733743638574	1489.118101467310	549.984500408063	1036.461103263043	931.850420879771	666.840297808669	947.272837780186	961.328970289280	407.923176749946	1041.633016926303	724.015598226039	627.606579200268	962.180839222206	618.157507272654	700.842110332871	1013.277478959977	563.164635083717	605.770669420311	1002.717361026225	472.434351480729	611.646956745336	1017.652995050510	765.130365519257	414.173836256475	937.495969903253	631.382983629156	345.442195135451	1052.979035389031	575.782534826472	387.699478794198	1073.396327520515	512.364959950257	380.345082167789	1053.983571611525	442.073709847970	366.993293728563	977.734657159653	318.711718095885	312.136821766469	1065.131681339042	211.772329564259	351.138809700754	958.712374110558	389.372716994182	621.131333194517	878.225061864069	294.294010649459	688.009990709474	895.717269063373	198.624546016412	616.615846192178	736.886697404779	44.819193762763	590.233501201663	910.496282778056	95.207970669141	621.423228811443	821.714849406199	36.852075262366	662.518847642702	1029.992906058408	40.753628321732	647.090972447763	972.083535719806	37.710052523513	380.688107237424	1044.414455845259	40.392495653352	299.125059698166	1121.563590534255	111.637313740298	321.651540602937	1251.857738751131	73.760079199933	291.043715044265	722.555887630697	1120.119327057263	355.753727161517	666.460599232286	872.172441066749	424.175251238139	1253.464147901526	1169.069642955866	785.112057675773	1479.096682683992	1248.019726954529	691.084622160854	
